<mxfile host="app.diagrams.net" modified="2023-06-18T08:54:41.731Z" agent="Mozilla/5.0 (Windows NT 10.0; Win64; x64) AppleWebKit/537.36 (KHTML, like Gecko) Chrome/114.0.0.0 Safari/537.36" etag="larFlqv95NYl_yPvdFQC" version="21.4.0" type="github">
  <diagram name="Страница 1" id="W4otJrM1j8d816sb7zPh">
    <mxGraphModel dx="1313" dy="676" grid="1" gridSize="10" guides="1" tooltips="1" connect="1" arrows="1" fold="1" page="1" pageScale="1" pageWidth="827" pageHeight="1169" math="0" shadow="0">
      <root>
        <mxCell id="0" />
        <mxCell id="1" parent="0" />
        <mxCell id="Mc2QHIfLZquTGS2bh6-l-1" value="" style="whiteSpace=wrap;html=1;" vertex="1" parent="1">
          <mxGeometry x="40" y="40" width="320" height="700" as="geometry" />
        </mxCell>
        <mxCell id="Mc2QHIfLZquTGS2bh6-l-4" value="Header" style="rounded=1;whiteSpace=wrap;html=1;" vertex="1" parent="1">
          <mxGeometry x="40" y="50" width="320" height="40" as="geometry" />
        </mxCell>
        <mxCell id="Mc2QHIfLZquTGS2bh6-l-5" value="fixed footer" style="rounded=0;whiteSpace=wrap;html=1;" vertex="1" parent="1">
          <mxGeometry x="40" y="700" width="320" height="40" as="geometry" />
        </mxCell>
        <mxCell id="Mc2QHIfLZquTGS2bh6-l-6" value="" style="rounded=0;whiteSpace=wrap;html=1;" vertex="1" parent="1">
          <mxGeometry x="40" y="90" width="320" height="70" as="geometry" />
        </mxCell>
        <mxCell id="Mc2QHIfLZquTGS2bh6-l-7" value="" style="whiteSpace=wrap;html=1;" vertex="1" parent="1">
          <mxGeometry x="40" y="90" width="90" height="70" as="geometry" />
        </mxCell>
        <mxCell id="Mc2QHIfLZquTGS2bh6-l-8" value="Фото" style="ellipse;whiteSpace=wrap;html=1;aspect=fixed;" vertex="1" parent="1">
          <mxGeometry x="60" y="94" width="50" height="50" as="geometry" />
        </mxCell>
        <mxCell id="Mc2QHIfLZquTGS2bh6-l-9" value="Имя" style="rounded=0;whiteSpace=wrap;html=1;" vertex="1" parent="1">
          <mxGeometry x="60" y="150" width="50" height="10" as="geometry" />
        </mxCell>
        <mxCell id="Mc2QHIfLZquTGS2bh6-l-10" value="Данные" style="rounded=0;whiteSpace=wrap;html=1;" vertex="1" parent="1">
          <mxGeometry x="140" y="94" width="210" height="50" as="geometry" />
        </mxCell>
        <mxCell id="Mc2QHIfLZquTGS2bh6-l-11" value="Кнопки настроек" style="rounded=0;whiteSpace=wrap;html=1;" vertex="1" parent="1">
          <mxGeometry x="40" y="170" width="320" height="20" as="geometry" />
        </mxCell>
        <mxCell id="Mc2QHIfLZquTGS2bh6-l-12" value="Последние истории" style="rounded=0;whiteSpace=wrap;html=1;" vertex="1" parent="1">
          <mxGeometry x="40" y="200" width="320" height="50" as="geometry" />
        </mxCell>
        <mxCell id="Mc2QHIfLZquTGS2bh6-l-14" value="Фотки" style="whiteSpace=wrap;html=1;" vertex="1" parent="1">
          <mxGeometry x="40" y="270" width="320" height="430" as="geometry" />
        </mxCell>
        <mxCell id="Mc2QHIfLZquTGS2bh6-l-15" value="Табы" style="rounded=0;whiteSpace=wrap;html=1;" vertex="1" parent="1">
          <mxGeometry x="40" y="270" width="320" height="60" as="geometry" />
        </mxCell>
      </root>
    </mxGraphModel>
  </diagram>
</mxfile>
